# xmcd
#
# Track frame offsets: 
#        150
#        14717
#        27900
#        43222
#        63217
#        75568
#        87752
#        107777
#        118399
#        128852
#        139284
#
# Disc length: 2046 seconds
#
# Revision: 0
# Processed by: cddbd v1.5.2PL0 Copyright (c) Steve Scherf et al.
# Submitted via: ExactAudioCopy v0.99pb5
#
DISCID=9907fc0b
DTITLE=Louie Crapitto - Tall Tales and Short Stories
DYEAR=2003
DGENRE=Country
TTITLE0=It Ain't Mexici (But It Ain't Bad)
TTITLE1=Another Great Depression
TTITLE2=A Night In Laredo
TTITLE3=The Famous Last Ride
TTITLE4=Louisiana Gold
TTITLE5=Gone Again
TTITLE6=I Can't Stand To See Her Cry
TTITLE7=You Should Be Drivin' A Mercdes Benz
TTITLE8=What In The World
TTITLE9=Two Weeks In Texas
TTITLE10=Amigos En Pas (Friends In Peace)
EXTD=
EXTT0=
EXTT1=
EXTT2=
EXTT3=
EXTT4=
EXTT5=
EXTT6=
EXTT7=
EXTT8=
EXTT9=
EXTT10=
PLAYORDER=
